<svg height="480pt" viewBox="-16 0 480 480" width="480pt" xmlns="http://www.w3.org/2000/svg"><path d="m445.65625 82.34375-80-80c-1.5-1.5-3.535156-2.34375-5.65625-2.34375h-224c-13.253906 0-24 10.746094-24 24v83.40625c-37.820312 10.757812-63.933594 45.273438-64 84.59375v48c0 13.253906 10.746094 24 24 24v8c.023438 17.125 9.167969 32.941406 24 41.503906v22.902344c-54.121094 4.207031-95.9179688 49.308594-96 103.59375v32c0 4.417969 3.582031 8 8 8h256c4.417969 0 8-3.582031 8-8v-32c-.042969-5.359375-.496094-10.710938-1.359375-16h153.359375c13.253906 0 24-10.746094 24-24v-312c0-2.121094-.84375-4.15625-2.34375-5.65625zm-77.65625-55.03125 52.6875 52.6875h-44.6875c-4.417969 0-8-3.582031-8-8zm-296 220.6875c-4.417969 0-8-3.582031-8-8s3.582031-8 8-8zm7-39.9375c-4 .503906-7 3.90625-7 7.9375-2.730469.027344-5.4375.523438-8 1.472656v-25.472656c0-39.765625 32.234375-72 72-72s72 32.234375 72 72v25.472656c-2.5625-.949218-5.269531-1.445312-8-1.472656v-8c0-3.03125-1.710938-5.804688-4.425781-7.160156-10.613281-5.304688-18.03125-21.601563-20-27.382813-.945313-2.816406-3.375-4.875-6.304688-5.347656-2.933593-.472656-5.886719.71875-7.667969 3.089844-21.65625 28.878906-81.992187 36.800781-82.601562 36.863281zm129 31.9375c0 4.417969-3.582031 8-8 8v-16c4.417969 0 8 3.582031 8 8zm-120 32v-49.152344c15.785156-2.785156 54.207031-11.421875 77.601562-32.519531 4.332032 8.722656 10.628907 16.324219 18.398438 22.199219v59.472656c0 17.671875-14.328125 32-32 32h-32c-17.671875 0-32-14.328125-32-32zm24 69.191406v-21.910156c2.640625.460938 5.316406.703125 8 .71875h32c2.683594-.015625 5.359375-.257812 8-.71875v21.910156l-24 30.007813zm12.59375 41.359375-17.042969 12.800781-10.558593-26.398437 7.59375-11.394531zm42.820312-25.007812 7.59375 11.394531-10.558593 26.398438-17.042969-12.800782zm88.585938 106.457031h-240v-24c.070312-42.40625 30.34375-78.746094 72.039062-86.480469l-6.695312 10.039063c-1.472656 2.191406-1.773438 4.964844-.800781 7.417968l16 40c.925781 2.320313 2.878906 4.074219 5.28125 4.746094 2.402343.671875 4.984375.183594 6.976562-1.324218l27.199219-20.398438 27.199219 20.398438c1.992187 1.496093 4.566406 1.980468 6.960937 1.308593 2.398438-.671875 4.347656-2.417969 5.273438-4.730469l16-40c.972656-2.453124.671875-5.226562-.800782-7.417968l-6.632812-10.039063c41.679688 7.75 71.933594 44.085938 72 86.480469zm176-64c0 4.417969-3.582031 8-8 8h-157.089844c-13.03125-40.054688-48.914062-68.3125-90.910156-71.59375v-22.902344c14.832031-8.5625 23.976562-24.378906 24-41.503906v-8c13.253906 0 24-10.746094 24-24v-48c-.058594-48.578125-39.421875-87.941406-88-88-2.703125 0-5.359375.167969-8 .40625v-80.40625c0-4.417969 3.582031-8 8-8h216v56c0 13.253906 10.746094 24 24 24h56zm0 0"/><path d="m336 152v168c.003906 1.578125.46875 3.125 1.34375 4.441406l14.65625 21.957032v21.601562c0 13.253906 10.746094 24 24 24s24-10.746094 24-24v-21.601562l14.65625-21.984376c.871094-1.308593 1.335938-2.84375 1.34375-4.414062v-168c0-22.089844-17.910156-40-40-40s-40 17.910156-40 40zm48 216c0 4.417969-3.582031 8-8 8s-8-3.582031-8-8v-16h16zm3.71875-32h-23.4375l-10.679688-16h44.796876zm12.28125-32h-16v-88h-16v88h-16v-104h48zm0-120h-48v-8h48zm0-32v8h-48v-8c0-13.253906 10.746094-24 24-24s24 10.746094 24 24zm0 0"/><path d="m168 48h32v16h-32zm0 0"/><path d="m216 48h96v16h-96zm0 0"/><path d="m168 80h96v16h-96zm0 0"/><path d="m240 128h80v16h-80zm0 0"/><path d="m240 176h80v16h-80zm0 0"/><path d="m240 224h80v16h-80zm0 0"/><path d="m120 232c0 4.417969-3.582031 8-8 8s-8-3.582031-8-8 3.582031-8 8-8 8 3.582031 8 8zm0 0"/><path d="m168 232c0 4.417969-3.582031 8-8 8s-8-3.582031-8-8 3.582031-8 8-8 8 3.582031 8 8zm0 0"/></svg>